<!-- svgstack.com --><svg width="108" height="108" viewBox="0 0 108 108" fill="none" xmlns="http://www.w3.org/2000/svg"><g clip-path="url(#clip0_2811_252)"><path fill-rule="evenodd" clip-rule="evenodd" d="M6.97175 45.0045H10.4301L14.0992 45L19.0839 50.0721L19.0234 57.1861L13.949 62.1709L6.83727 62.1081L1.85254 57.036L1.9153 49.9242L5.75918 46.1453V58.2329H15.193V48.7475H8.05207V55.8884H12.7544V51.2107H9.30274V49.9847H13.9535V57.0472H6.97175V45.0045Z" fill="#ED3338"/><path fill-rule="evenodd" clip-rule="evenodd" d="M27.0787 53.0621C27.8094 53.0621 28.3473 52.9814 28.6947 52.8178C29.0422 52.6541 29.3089 52.4255 29.4927 52.1297C29.6765 51.8338 29.7706 51.4573 29.7706 50.9978C29.7706 50.5383 29.6787 50.164 29.4971 49.8704C29.3156 49.5768 29.0534 49.3549 28.7149 49.2025C28.3765 49.0501 27.8318 48.9761 27.081 48.9806V53.0621M27.081 53.656V57.3587C27.081 57.6321 27.1505 57.8406 27.2872 57.9818C27.4262 58.1208 27.6279 58.1925 27.8991 58.1925C28.3003 58.1925 28.6701 58.1028 29.0063 57.9213C29.3447 57.742 29.6025 57.4797 29.784 57.1368C29.9633 56.7939 30.0552 56.4129 30.0552 55.9915C30.0552 55.5096 29.9544 55.077 29.7527 54.6938C29.5509 54.3105 29.2528 54.0415 28.8561 53.8846C28.4594 53.7277 27.8699 53.6515 27.0832 53.6583L27.081 53.656ZM29.8647 53.2683C30.8532 53.4969 31.5457 53.7748 31.9447 54.102C32.5185 54.566 32.8054 55.1667 32.8054 55.9063C32.8054 56.6863 32.4916 57.3318 31.8662 57.8428C31.0975 58.4592 29.979 58.7685 28.5132 58.7685H23.2505V58.5018C23.7302 58.5018 24.0552 58.457 24.2255 58.3673C24.3959 58.2776 24.5147 58.1611 24.5841 58.0177C24.6536 57.8742 24.6872 57.5201 24.6872 56.9553V50.2156C24.6872 49.6507 24.6514 49.2966 24.5841 49.1487C24.5147 49.003 24.3936 48.8864 24.221 48.799C24.0485 48.7116 23.7235 48.669 23.2505 48.669V48.4023H28.2173C29.4053 48.4023 30.2458 48.5077 30.7388 48.7183C31.2342 48.929 31.6219 49.2451 31.9088 49.6664C32.1935 50.0856 32.3369 50.5338 32.3369 51.0068C32.3369 51.5066 32.1554 51.9504 31.79 52.3381C31.4247 52.7281 30.7837 53.0374 29.8647 53.266V53.2683Z" fill="#383336"/><path fill-rule="evenodd" clip-rule="evenodd" d="M39.5876 55.3527L38.0434 51.8226L36.461 55.3527H39.5876ZM39.8342 55.9153H36.2099L35.7572 56.9261C35.6138 57.2668 35.542 57.547 35.542 57.7689C35.542 58.0625 35.6586 58.2799 35.8939 58.4189C36.0306 58.5018 36.3691 58.5623 36.9092 58.6049V58.8716H33.4666V58.6049C33.8386 58.5489 34.1434 58.392 34.3833 58.1387C34.6231 57.8832 34.9167 57.3565 35.2686 56.5585L38.9668 48.3015H39.1125L42.8488 56.7872C43.2052 57.6008 43.4965 58.114 43.7274 58.3247C43.9 58.4839 44.1443 58.578 44.4603 58.6026V58.8694H39.4532V58.6026H39.6594C40.0606 58.6026 40.343 58.5466 40.5066 58.4323C40.6187 58.3494 40.6747 58.2306 40.6747 58.0759C40.6747 57.9818 40.659 57.8854 40.6299 57.789C40.6187 57.742 40.5424 57.5492 40.399 57.2063L39.8342 55.913V55.9153Z" fill="#383336"/><path fill-rule="evenodd" clip-rule="evenodd" d="M48.5328 48.2858L53.6363 54.7072V50.2559C53.6363 49.6283 53.5467 49.2047 53.3696 48.9828C53.1231 48.6847 52.7129 48.5413 52.1369 48.5502V48.2835H55.5616V48.5502C55.1246 48.6063 54.8287 48.6802 54.6785 48.7699C54.5284 48.8596 54.4118 49.0052 54.3267 49.2092C54.2437 49.4132 54.2011 49.7606 54.2011 50.2537V58.8851H53.9434L46.9459 50.2447V56.8522C46.9459 57.4528 47.0827 57.8585 47.3561 58.0692C47.6295 58.2799 47.9433 58.3852 48.2952 58.3852H48.5395V58.6497H44.8503V58.3852C45.4218 58.3808 45.8208 58.262 46.0449 58.0311C46.2691 57.8002 46.3811 57.408 46.3811 56.8522V49.523L46.1637 49.254C45.9441 48.9739 45.7513 48.7878 45.5832 48.7004C45.4151 48.6108 45.173 48.5615 44.857 48.5525V48.2858H48.5306" fill="#383336"/><path fill-rule="evenodd" clip-rule="evenodd" d="M62.4627 52.3785L66.0937 56.9418C66.6069 57.5873 67.0507 58.0244 67.4228 58.2552C67.6917 58.4189 67.9786 58.4995 68.279 58.4995V58.7663H62.8975V58.4995C63.2382 58.4682 63.4579 58.4144 63.5587 58.3382C63.6573 58.262 63.7066 58.1656 63.7066 58.0513C63.7066 57.8339 63.4735 57.4282 63.0051 56.832L60.6338 53.851L60.246 54.1648V57.0001C60.246 57.5447 60.2774 57.8832 60.3379 58.0154C60.3984 58.1477 60.5172 58.2642 60.6898 58.3583C60.8646 58.4547 61.1426 58.4995 61.5258 58.4995V58.7663H56.3035V58.4995H56.6464C56.9445 58.4995 57.1866 58.4458 57.3704 58.3382C57.5026 58.2664 57.6035 58.1432 57.6752 57.9683C57.7312 57.8451 57.7581 57.5223 57.7581 56.9978V50.1685C57.7581 49.6351 57.7312 49.3011 57.6752 49.1689C57.6192 49.0366 57.5071 48.9178 57.3368 48.8192C57.1664 48.7183 56.9378 48.669 56.6464 48.669H56.3035V48.4023H61.4474V48.669C61.0977 48.669 60.831 48.7206 60.6472 48.8237C60.515 48.8954 60.4119 49.0164 60.3357 49.1868C60.2752 49.3145 60.2438 49.644 60.2438 50.1707V53.405L64.0966 50.303C64.6301 49.8614 64.8968 49.5095 64.8968 49.2451C64.8968 49.0478 64.787 48.8932 64.5696 48.7789C64.4575 48.7228 64.1796 48.6847 63.738 48.669V48.4023H67.7702V48.669C67.4093 48.6937 67.1247 48.7609 66.9185 48.8663C66.7123 48.9716 66.2371 49.3302 65.4952 49.9399L62.4649 52.3807" fill="#383336"/><path fill-rule="evenodd" clip-rule="evenodd" d="M79.4789 55.2362L82.3097 48.4023H86.5032V48.669H86.1693C85.8645 48.669 85.6202 48.7228 85.4386 48.8327C85.3109 48.9044 85.21 49.0277 85.1338 49.198C85.0778 49.3235 85.0486 49.6463 85.0486 50.1707V57.0023C85.0486 57.5358 85.0778 57.8697 85.1338 58.002C85.1898 58.1342 85.3041 58.253 85.4767 58.3516C85.6493 58.4525 85.8802 58.5018 86.1693 58.5018H86.5032V58.7685H81.1084V58.5018H81.4446C81.7494 58.5018 81.9914 58.448 82.1752 58.3404C82.303 58.2687 82.4039 58.1454 82.4801 57.9706C82.5361 57.8473 82.563 57.5246 82.563 57.0001V49.3302L78.5824 58.7685H78.3986L74.3642 49.3997V56.6885C74.3642 57.2018 74.3776 57.5156 74.4023 57.6344C74.4673 57.8899 74.613 58.0983 74.8349 58.2597C75.0568 58.4211 75.4064 58.5018 75.8793 58.5018V58.7685H72.3313V58.5018H72.4389C72.6697 58.5063 72.8827 58.4704 73.0821 58.3897C73.2816 58.309 73.4318 58.2037 73.5349 58.0692C73.6357 57.9347 73.7164 57.7465 73.7725 57.5066C73.7837 57.4506 73.7882 57.1884 73.7882 56.7199V50.1685C73.7882 49.6351 73.7613 49.3011 73.7052 49.1689C73.6492 49.0366 73.5349 48.9201 73.3601 48.8192C73.1875 48.7183 72.9544 48.6668 72.663 48.6668H72.3335V48.4001H76.5584L79.4812 55.2339" fill="#383336"/><path fill-rule="evenodd" clip-rule="evenodd" d="M93.021 55.3527L91.4768 51.8226L89.8944 55.3527H93.021ZM93.2676 55.9153H89.6434L89.1906 56.9261C89.0494 57.2668 88.9777 57.547 88.9777 57.7689C88.9777 58.0625 89.0942 58.2799 89.3273 58.4189C89.4641 58.5018 89.8025 58.5623 90.3427 58.6049V58.8716H86.9V58.6049C87.272 58.5489 87.5769 58.392 87.8167 58.1387C88.0565 57.8832 88.3501 57.3565 88.702 56.5585L92.4002 48.3015H92.5459L96.2822 56.7872C96.6386 57.6008 96.9322 58.114 97.1608 58.3247C97.3334 58.4839 97.5777 58.578 97.8937 58.6026V58.8694H92.8866V58.6026H93.0928C93.494 58.6026 93.7764 58.5466 93.94 58.4323C94.0521 58.3494 94.1081 58.2306 94.1081 58.0759C94.1081 57.9818 94.0924 57.8854 94.061 57.789C94.0498 57.742 93.9736 57.5492 93.8324 57.2063L93.2676 55.913V55.9153Z" fill="#383336"/><path fill-rule="evenodd" clip-rule="evenodd" d="M105.429 48.167L105.508 51.6231H105.194C105.046 50.758 104.683 50.0632 104.104 49.5364C103.526 49.0097 102.899 48.7475 102.226 48.7475C101.706 48.7475 101.294 48.8864 100.991 49.1644C100.689 49.4423 100.536 49.7606 100.536 50.1214C100.536 50.35 100.59 50.554 100.695 50.7311C100.843 50.9709 101.081 51.2062 101.406 51.4416C101.646 51.6097 102.199 51.9078 103.064 52.3336C104.277 52.9298 105.095 53.4924 105.519 54.0214C105.936 54.5503 106.144 55.1555 106.144 55.8368C106.144 56.702 105.806 57.4461 105.131 58.0692C104.456 58.6923 103.598 59.0038 102.558 59.0038C102.233 59.0038 101.924 58.9702 101.632 58.9052C101.341 58.8402 100.978 58.7147 100.538 58.5309C100.294 58.4301 100.092 58.3785 99.9333 58.3785C99.8011 58.3785 99.6599 58.4301 99.512 58.5332C99.364 58.6363 99.2452 58.7932 99.1533 59.0038H98.8889V55.095H99.1533C99.3775 56.1932 99.8101 57.0292 100.449 57.6075C101.088 58.1835 101.778 58.4726 102.518 58.4726C103.087 58.4726 103.544 58.318 103.883 58.0064C104.221 57.6971 104.391 57.334 104.391 56.9216C104.391 56.6773 104.326 56.4398 104.196 56.2111C104.066 55.9825 103.869 55.7651 103.605 55.5589C103.34 55.3527 102.869 55.0837 102.197 54.7543C101.253 54.2903 100.577 53.8958 100.166 53.5708C99.7563 53.2458 99.4402 52.8805 99.2183 52.4771C98.9987 52.0736 98.8889 51.6321 98.8889 51.148C98.8889 50.3231 99.1914 49.6194 99.7966 49.0389C100.402 48.4584 101.166 48.167 102.087 48.167C102.423 48.167 102.748 48.2073 103.064 48.288C103.304 48.3485 103.596 48.4606 103.939 48.6242C104.284 48.7878 104.524 48.8708 104.66 48.8708C104.797 48.8708 104.898 48.8304 104.972 48.7497C105.048 48.669 105.12 48.474 105.185 48.167H105.42" fill="#383336"/></g><defs><clipPath id="clip0_2811_252"><rect width="108" height="108" rx="8" fill="white"/></clipPath></defs></svg> 